<svg id="Logo" xmlns="http://www.w3.org/2000/svg" width="218.118" height="56.25" viewBox="0 0 218.118 56.25">
  <g id="Group_8" data-name="Group 8" transform="translate(81.2 9.429)">
    <path id="Path_44" data-name="Path 44" d="M302.2,45.114c.075,0,.451-.075,1.126-.15a7.729,7.729,0,0,0,1.652-.375,2.29,2.29,0,0,0,1.2-1.051,3.5,3.5,0,0,0,.526-2.1V36.329a3.934,3.934,0,0,0-1.051-2.7A3.363,3.363,0,0,0,303.1,32.5H282.075v4.806H299.27a2.7,2.7,0,0,1,.826.15,1.351,1.351,0,0,1,.676.451,1.075,1.075,0,0,1,.225.826,1.185,1.185,0,0,1-.526,1.126,1.515,1.515,0,0,1-1.051.375H282V53.749h5.556V45.114h7.208l6.833,8.635h7.283Z" transform="translate(-172.674 -32.35)" fill="#00aeef"/>
    <path id="Path_45" data-name="Path 45" d="M222.4,37.256h9.986V53.625h5.481V32.3H222.4Z" transform="translate(-157.826 -32.3)" fill="#00aeef"/>
    <path id="Path_46" data-name="Path 46" d="M244.9,53.649h5.481V37.356h9.986V32.4H244.9Z" transform="translate(-163.431 -32.325)" fill="#00aeef"/>
    <path id="Path_47" data-name="Path 47" d="M167.936,34.427a4.937,4.937,0,0,0-1.727-1.276,5.039,5.039,0,0,0-2.1-.451,4.54,4.54,0,0,0-3.229,1.2,11.167,11.167,0,0,0-2.4,3.379l-5.707,10.812-5.481-10.737a13.959,13.959,0,0,0-2.628-3.6,4.838,4.838,0,0,0-3.154-1.051,4.746,4.746,0,0,0-1.577.375,5.588,5.588,0,0,0-1.652,1.051,5.91,5.91,0,0,0-1.352,1.652,4.253,4.253,0,0,0-.526,2.178V54.024h5.481V40.734a.853.853,0,0,1,.225-.6.543.543,0,0,1,.451-.3.568.568,0,0,1,.3.075,1.318,1.318,0,0,1,.375.3.649.649,0,0,1,.225.451l6.908,13.29h5.256l6.683-13.14a.878.878,0,0,1,.826-.6.649.649,0,0,1,.451.225.853.853,0,0,1,.225.6V53.949h5.556V38.106a5.57,5.57,0,0,0-.375-1.877,6.284,6.284,0,0,0-1.051-1.8" transform="translate(-136.4 -32.4)" fill="#00aeef"/>
    <rect id="Rectangle_3" data-name="Rectangle 3" width="5.556" height="21.325" transform="translate(46.553 0.075)" fill="#00aeef"/>
  </g>
  <g id="Group_6" data-name="Group 6">
    <path id="Path_20" data-name="Path 20" d="M70.35,5.25,65.15,2.3,60.4,2.1l5.15,3.05Z" transform="translate(-30.2 -1.05)" fill="#999"/>
    <path id="Path_21" data-name="Path 21" d="M89.662,16.562c-.8-.1-1.3,0-1.4.25-.15.3.15.7.85,1.15a11.025,11.025,0,0,0,2.45,1.3c.05,0,.05,0,.1.05a15.616,15.616,0,0,0,2.85.8,2.18,2.18,0,0,0,1.05-.05.638.638,0,0,0,.35-.25c.15-.3-.15-.65-.85-1.15a10.463,10.463,0,0,0-2.6-1.35,13.817,13.817,0,0,0-2.8-.75" transform="translate(-44.112 -8.262)" fill="#999"/>
    <path id="Path_22" data-name="Path 22" d="M83.012,26.791a11.073,11.073,0,0,0-3.2-.8c-.95-.05-1.5.1-1.65.5s.15.9.85,1.5a12.082,12.082,0,0,0,6.1,2.35c.95.05,1.5-.1,1.65-.5s-.15-.9-.9-1.45a8.049,8.049,0,0,0-2.85-1.6" transform="translate(-39.062 -12.991)" fill="#999"/>
    <path id="Path_23" data-name="Path 23" d="M77.9,12.4l4.65-.05-5.4-3.1L72.4,9.2Z" transform="translate(-36.2 -4.6)" fill="#999"/>
    <path id="Path_24" data-name="Path 24" d="M92.5,25.1l-5.1.3,6.75,4.2,5.05-.5c0-.05-6.7-4-6.7-4" transform="translate(-43.7 -12.55)" fill="#999"/>
    <path id="Path_25" data-name="Path 25" d="M35.866,8.492c-1-.05-1.5.15-1.6.45-.15.35.2.8,1.05,1.3a13.247,13.247,0,0,0,3.15,1.35,16.3,16.3,0,0,0,3.35.65c.95,0,1.5-.15,1.6-.5.15-.3-.2-.75-1.05-1.3a14.605,14.605,0,0,0-3.15-1.3,13.52,13.52,0,0,0-3.35-.65" transform="translate(-17.116 -4.242)" fill="#999"/>
    <path id="Path_26" data-name="Path 26" d="M25.35.3,18.6,0l5.2,3.45,6.75.2Z" transform="translate(-9.3)" fill="#999"/>
    <path id="Path_27" data-name="Path 27" d="M54.994,2.288a10.218,10.218,0,0,0-2.7-.6c-.8-.05-1.2.05-1.3.3-.05.3.2.65.9,1.05a8.944,8.944,0,0,0,2.5,1.15,10.983,10.983,0,0,0,2.75.6c.75.05,1.2-.05,1.3-.3s-.15-.6-.85-1a10.454,10.454,0,0,0-2.6-1.2" transform="translate(-25.494 -0.837)" fill="#999"/>
    <path id="Path_28" data-name="Path 28" d="M45.4,4.2,40.25,1,34.4.7l5.15,3.35Z" transform="translate(-17.2 -0.35)" fill="#999"/>
    <path id="Path_29" data-name="Path 29" d="M66.15,31.6l6.6-.65-7-4.45-6.65.35Z" transform="translate(-29.55 -13.25)" fill="#999"/>
    <path id="Path_30" data-name="Path 30" d="M103.95,24.5l-4.65.25L106,28.7l4.55-.45Z" transform="translate(-49.65 -12.25)" fill="#999"/>
    <path id="Path_31" data-name="Path 31" d="M44.2,17.05l6.4,4.35,6.7-.3L50.9,17Z" transform="translate(-22.1 -8.5)" fill="#999"/>
    <path id="Path_48" data-name="Path 48" d="M11.3,12.8s.3,13.35,3.8,15.1c2.5,1.3,8.2-5.9,10.45-4.2,5.65,4.25-8.95,26.8-8.95,26.8v.15l5.75,5.8,6.5-17.55v-.05l7.1-19.2L8.2.7,1.7,27.1v.05L0,33.95l4.45,4.5" transform="translate(0 -0.35)" fill="#00aeef"/>
  </g>
  <g id="Group_7" data-name="Group 7">
    <path id="Path_32" data-name="Path 32" d="M62.152,64.661a2.082,2.082,0,0,0,.65,2.2,2.216,2.216,0,0,0,2.3-.05,7.391,7.391,0,0,0,2.65-2.4,6.765,6.765,0,0,0,1.45-3.25,2.3,2.3,0,0,0-.6-2.25,2.137,2.137,0,0,0-2.3.1,7.341,7.341,0,0,0-2.65,2.35,8.1,8.1,0,0,0-1.5,3.3" transform="translate(-31.052 -29.311)" fill="#f7941d"/>
    <path id="Path_33" data-name="Path 33" d="M52.7,85.8l6.55-2.2,3-7.6-6.6,1.8s-3,8-2.95,8" transform="translate(-26.349 -38)" fill="#f7941d"/>
    <path id="Path_34" data-name="Path 34" d="M63.5,95.486a1.83,1.83,0,0,0,.3,1.85,1.857,1.857,0,0,0,1.9-.1,7.873,7.873,0,0,0,2.3-1.9,7.773,7.773,0,0,0,1.4-2.7,1.83,1.83,0,0,0-.3-1.85,1.771,1.771,0,0,0-1.85.1,6.854,6.854,0,0,0-2.3,1.95,6.368,6.368,0,0,0-1.45,2.65" transform="translate(-31.7 -45.286)" fill="#f7941d"/>
    <path id="Path_35" data-name="Path 35" d="M114.25,33.7l-4.5.55L106.3,42l4.55-.9c0-.05,3.4-7.4,3.4-7.4" transform="translate(-53.15 -16.85)" fill="#f7941d"/>
    <path id="Path_36" data-name="Path 36" d="M102.6,35.644c-.5-.3-1.15-.15-1.95.3a7.837,7.837,0,0,0-2.25,2.35,8.366,8.366,0,0,0-1.25,3c-.15,1,.05,1.6.5,1.9s1.15.2,1.95-.3a8.481,8.481,0,0,0,2.25-2.35,6.891,6.891,0,0,0,1.25-3c.1-.95-.05-1.6-.5-1.9" transform="translate(-48.551 -17.744)" fill="#f7941d"/>
    <path id="Path_37" data-name="Path 37" d="M106.6,50.7l-4.55.9L98.9,58.8l4.6-1.25Z" transform="translate(-49.45 -25.35)" fill="#f7941d"/>
    <path id="Path_38" data-name="Path 38" d="M66.8,47.75l6.55-1.25,3.5-8.8-6.6.8Z" transform="translate(-33.4 -18.85)" fill="#f7941d"/>
    <path id="Path_39" data-name="Path 39" d="M81.7,45.55l5.7-1.1,3.45-8.25-5.65.65Z" transform="translate(-40.85 -18.1)" fill="#f7941d"/>
    <path id="Path_40" data-name="Path 40" d="M88.35,82.6,85.5,89l4.65-1.85L92.95,81Z" transform="translate(-42.75 -40.5)" fill="#f7941d"/>
    <path id="Path_41" data-name="Path 41" d="M79.1,91.15l2.8-6.45-5,1.7-2.8,6.7Z" transform="translate(-37.05 -42.35)" fill="#f7941d"/>
    <path id="Path_42" data-name="Path 42" d="M99.584,69.15c.15-.8.05-1.3-.35-1.6-.35-.25-.9-.2-1.65.25a6.449,6.449,0,0,0-1.9,1.95,6.907,6.907,0,0,0-1.15,2.5c-.15.8-.05,1.4.35,1.65.4.3.95.15,1.65-.25a7.213,7.213,0,0,0,1.95-1.95,6.916,6.916,0,0,0,1.1-2.55" transform="translate(-47.234 -33.7)" fill="#f7941d"/>
    <path id="Path_43" data-name="Path 43" d="M55.75,93.1l-6.5,2.25L46.5,102.8l6.5-2.6Z" transform="translate(-23.25 -46.55)" fill="#f7941d"/>
  </g>
  <path id="Path_7455" data-name="Path 7455" d="M5.689,0H1.037V-8.4H2.432v7.225H5.689ZM14.65-2.631H10.56a1.729,1.729,0,0,0,.513,1.283A1.908,1.908,0,0,0,12.418-.9a2.965,2.965,0,0,0,1.764-.574v1.1a4.029,4.029,0,0,1-2.168.516A2.684,2.684,0,0,1,9.936-.677a3.269,3.269,0,0,1-.753-2.3,3.2,3.2,0,0,1,.829-2.282,2.712,2.712,0,0,1,2.06-.882,2.365,2.365,0,0,1,1.9.791,3.284,3.284,0,0,1,.674,2.2Zm-1.312-.961a1.752,1.752,0,0,0-.346-1.14,1.155,1.155,0,0,0-.937-.407,1.319,1.319,0,0,0-.993.428,1.954,1.954,0,0,0-.5,1.119ZM23.37,0H22.052V-.937h-.023A1.985,1.985,0,0,1,20.206.141a1.92,1.92,0,0,1-1.386-.48,1.681,1.681,0,0,1-.5-1.271q0-1.7,1.957-1.98l1.781-.252q0-1.283-1.219-1.283a2.9,2.9,0,0,0-1.934.738V-5.578A4.217,4.217,0,0,1,21.1-6.141,1.994,1.994,0,0,1,23.37-3.9ZM22.058-2.947l-1.26.176a2,2,0,0,0-.882.284.83.83,0,0,0-.3.729.8.8,0,0,0,.272.624,1.055,1.055,0,0,0,.729.243,1.346,1.346,0,0,0,1.028-.437,1.548,1.548,0,0,0,.407-1.1Zm9.271-1.758A1.127,1.127,0,0,0,30.62-4.9a1.214,1.214,0,0,0-1.008.545,2.437,2.437,0,0,0-.4,1.482V0H27.849V-6h1.359v1.236h.023a2.09,2.09,0,0,1,.612-.987,1.382,1.382,0,0,1,.923-.354,1.146,1.146,0,0,1,.563.111ZM40.454,0H39.094V-3.381q0-1.682-1.189-1.682A1.3,1.3,0,0,0,36.88-4.6a1.728,1.728,0,0,0-.4,1.175V0H35.11V-6h1.365v1H36.5a2.138,2.138,0,0,1,1.945-1.137,1.812,1.812,0,0,1,1.494.636,2.855,2.855,0,0,1,.516,1.837Zm5.164-7.26a.817.817,0,0,1-.571-.217.713.713,0,0,1-.237-.551.732.732,0,0,1,.237-.557.805.805,0,0,1,.571-.223.83.83,0,0,1,.586.223.727.727,0,0,1,.24.557.717.717,0,0,1-.24.542A.824.824,0,0,1,45.618-7.26ZM46.291,0H44.932V-6h1.359Zm9.939,0H54.871V-3.381q0-1.682-1.189-1.682a1.3,1.3,0,0,0-1.025.466,1.728,1.728,0,0,0-.4,1.175V0H50.887V-6h1.365v1h.023a2.138,2.138,0,0,1,1.945-1.137,1.812,1.812,0,0,1,1.494.636,2.855,2.855,0,0,1,.516,1.837ZM66.17-.48q0,3.3-3.322,3.3A4.948,4.948,0,0,1,60.8,2.432V1.189a3.784,3.784,0,0,0,1.869.563,1.875,1.875,0,0,0,2.139-2.1v-.656h-.023A2.2,2.2,0,0,1,62.76.141a2.193,2.193,0,0,1-1.767-.8,3.234,3.234,0,0,1-.671-2.147,3.788,3.788,0,0,1,.721-2.432,2.4,2.4,0,0,1,1.98-.9,1.909,1.909,0,0,1,1.764.973h.023V-6H66.17ZM64.822-2.748v-.779A1.527,1.527,0,0,0,64.4-4.608a1.372,1.372,0,0,0-1.046-.448,1.437,1.437,0,0,0-1.21.571,2.578,2.578,0,0,0-.437,1.6,2.219,2.219,0,0,0,.419,1.415,1.345,1.345,0,0,0,1.11.53,1.441,1.441,0,0,0,1.143-.507A1.91,1.91,0,0,0,64.822-2.748ZM82.784.006l-.768-.814a3.487,3.487,0,0,1-.56.4,3.945,3.945,0,0,1-.65.3,4.284,4.284,0,0,1-.712.188,4.318,4.318,0,0,1-.744.064,3.719,3.719,0,0,1-1.143-.164,2.559,2.559,0,0,1-.87-.466,2.076,2.076,0,0,1-.557-.724,2.2,2.2,0,0,1-.2-.937q0-1.447,1.922-2.437a3.275,3.275,0,0,1-.885-1.945,1.883,1.883,0,0,1,.173-.809,1.879,1.879,0,0,1,.483-.636,2.3,2.3,0,0,1,.741-.419,2.8,2.8,0,0,1,.94-.152,2.722,2.722,0,0,1,.882.135,2.044,2.044,0,0,1,.677.375,1.652,1.652,0,0,1,.434.571,1.7,1.7,0,0,1,.152.718,2.291,2.291,0,0,1-.1.688,1.786,1.786,0,0,1-.311.577,2.693,2.693,0,0,1-.562.516,6.222,6.222,0,0,1-.853.492q.463.5.935.99t.958.99a2.849,2.849,0,0,0,.226-.422,3.854,3.854,0,0,0,.176-.492,4.229,4.229,0,0,0,.114-.533,3.657,3.657,0,0,0,.041-.539h1.189A4.234,4.234,0,0,1,82.9-1.658q.264.281.665.691t.946.973Zm-1.9-6.645A.908.908,0,0,0,80.807-7a.966.966,0,0,0-.2-.3.924.924,0,0,0-.287-.2.853.853,0,0,0-.352-.073,1.308,1.308,0,0,0-.448.073.969.969,0,0,0-.346.211.965.965,0,0,0-.223.325,1.06,1.06,0,0,0-.079.416,2.407,2.407,0,0,0,.768,1.395Q80.88-5.783,80.88-6.639Zm.428,5.068q-.686-.709-2.145-2.285a2.674,2.674,0,0,0-.929.715,1.448,1.448,0,0,0-.284.891,1.327,1.327,0,0,0,.114.56,1.26,1.26,0,0,0,.313.425A1.385,1.385,0,0,0,78.85-1a1.8,1.8,0,0,0,.589.094A2.748,2.748,0,0,0,81.308-1.57ZM103.577,0h-1.383V-5.437q0-.668.082-1.635h-.023a5.645,5.645,0,0,1-.229.791L99.516,0h-.961L96.041-6.234a5.872,5.872,0,0,1-.223-.838H95.8q.047.5.047,1.646V0H94.553V-8.4h1.963l2.209,5.6a8.275,8.275,0,0,1,.328.961h.029q.217-.662.352-.984l2.25-5.572h1.893Zm9.816-2.631H109.3a1.729,1.729,0,0,0,.513,1.283A1.908,1.908,0,0,0,111.16-.9a2.965,2.965,0,0,0,1.764-.574v1.1a4.029,4.029,0,0,1-2.168.516,2.684,2.684,0,0,1-2.077-.817,3.269,3.269,0,0,1-.753-2.3,3.2,3.2,0,0,1,.829-2.282,2.712,2.712,0,0,1,2.06-.882,2.365,2.365,0,0,1,1.9.791,3.284,3.284,0,0,1,.674,2.2Zm-1.312-.961a1.752,1.752,0,0,0-.346-1.14,1.155,1.155,0,0,0-.937-.407,1.319,1.319,0,0,0-.993.428,1.954,1.954,0,0,0-.5,1.119ZM122.963,0H121.6V-1.02h-.023a2.168,2.168,0,0,1-2.021,1.16,2.182,2.182,0,0,1-1.772-.806,3.344,3.344,0,0,1-.665-2.194,3.644,3.644,0,0,1,.735-2.385,2.407,2.407,0,0,1,1.96-.9,1.877,1.877,0,0,1,1.764.973h.023V-8.883h1.359Zm-1.342-2.742v-.785a1.53,1.53,0,0,0-.416-1.084,1.388,1.388,0,0,0-1.061-.445,1.428,1.428,0,0,0-1.2.568,2.533,2.533,0,0,0-.437,1.576,2.269,2.269,0,0,0,.419,1.444,1.363,1.363,0,0,0,1.128.53,1.411,1.411,0,0,0,1.131-.513A1.932,1.932,0,0,0,121.621-2.742Zm6.623-4.518a.817.817,0,0,1-.571-.217.713.713,0,0,1-.237-.551.732.732,0,0,1,.237-.557.805.805,0,0,1,.571-.223.83.83,0,0,1,.586.223.727.727,0,0,1,.24.557.717.717,0,0,1-.24.542A.824.824,0,0,1,128.244-7.26ZM128.917,0h-1.359V-6h1.359Zm9.2,0H136.8V-.937h-.023A1.985,1.985,0,0,1,134.954.141a1.92,1.92,0,0,1-1.386-.48,1.681,1.681,0,0,1-.5-1.271q0-1.7,1.957-1.98l1.781-.252q0-1.283-1.219-1.283a2.9,2.9,0,0,0-1.934.738V-5.578a4.217,4.217,0,0,1,2.191-.562A1.994,1.994,0,0,1,138.118-3.9Zm-1.312-2.947-1.26.176a2,2,0,0,0-.882.284.83.83,0,0,0-.3.729.8.8,0,0,0,.272.624,1.055,1.055,0,0,0,.729.243,1.346,1.346,0,0,0,1.028-.437,1.548,1.548,0,0,0,.407-1.1Z" transform="translate(80 45.125)" fill="#fff"/>
</svg>
